<?xml version="1.0" standalone="no"?>
<!DOCTYPE svg PUBLIC "-//W3C//DTD SVG 20010904//EN"
 "http://www.w3.org/TR/2001/REC-SVG-20010904/DTD/svg10.dtd">
<svg version="1.0" xmlns="http://www.w3.org/2000/svg"
 width="370.000000pt" height="370.000000pt" viewBox="0 0 370.000000 370.000000"
 preserveAspectRatio="xMidYMid meet">
<metadata>
Created by potrace 1.14, written by Peter Selinger 2001-2017
</metadata>
<g transform="translate(0.000000,370.000000) scale(0.100000,-0.100000)"
fill="#000000" stroke="none">
<path d="M1760 3512 c-93 -193 -195 -373 -319 -563 -44 -68 -78 -125 -77 -127
4 -3 103 34 129 48 13 8 21 5 35 -11 9 -12 23 -27 30 -34 6 -8 12 -16 12 -20
0 -4 13 -26 29 -49 109 -158 251 -565 244 -699 -2 -43 13 1 24 71 12 75 20
117 23 117 1 0 3 11 6 25 21 119 139 389 228 524 l57 84 76 -29 c42 -16 77
-28 79 -26 2 1 -22 41 -53 87 -115 175 -235 384 -328 571 -53 107 -99 197
-103 200 -4 3 -45 -73 -92 -169z m100 -380 c0 -11 94 -107 135 -138 l33 -25
-25 -50 c-50 -105 -112 -281 -128 -367 -14 -80 -18 -109 -17 -119 2 -6 -2 -14
-8 -18 -6 -4 -10 -3 -8 2 2 7 -8 88 -17 133 -15 84 -84 279 -129 368 l-25 50
37 28 c41 32 132 125 132 137 0 4 5 7 10 7 6 0 10 -4 10 -8z"/>
<path d="M370 2602 c130 -196 239 -383 332 -571 68 -137 68 -137 84 -15 5 42
11 55 28 61 28 9 300 11 351 2 22 -4 60 -9 85 -13 115 -14 314 -69 408 -112
19 -9 36 -13 39 -10 4 3 1 6 -5 6 -13 0 -103 74 -178 146 -134 129 -278 325
-350 479 l-37 77 34 27 c19 14 47 38 64 54 l30 27 -140 -7 c-174 -8 -445 -8
-590 0 -138 8 -247 17 -261 22 -6 2 42 -76 106 -173z m641 -94 c68 -107 206
-257 307 -336 55 -43 57 -53 6 -28 -76 38 -312 94 -433 102 -42 3 -81 7 -87 9
-6 2 -15 27 -18 57 -4 29 -17 83 -29 120 l-23 66 51 7 c27 4 77 17 110 30 33
12 65 23 71 24 7 0 27 -23 45 -51z"/>
<path d="M2456 2761 c-3 -5 18 -28 46 -52 29 -23 57 -46 62 -50 12 -10 -61
-156 -132 -265 -97 -148 -273 -341 -379 -415 -24 -17 -43 -32 -43 -34 0 -2 35
10 77 26 74 29 237 75 295 85 75 12 98 15 158 23 75 10 326 7 353 -4 11 -4 17
-19 18 -39 0 -17 6 -53 12 -79 l12 -49 62 124 c98 193 206 379 322 553 59 88
111 166 115 174 8 12 -4 13 -70 7 -179 -14 -308 -20 -459 -20 -175 0 -422 11
-435 19 -5 3 -11 1 -14 -4z m316 -216 c19 -8 66 -21 104 -30 99 -24 98 -23 86
-38 -13 -15 -52 -162 -52 -194 0 -26 -10 -29 -114 -38 -38 -3 -79 -8 -90 -10
-12 -3 -32 -7 -46 -9 -69 -11 -224 -57 -315 -92 -11 -4 5 12 35 36 83 66 211
202 282 301 35 49 66 89 69 89 4 0 22 -7 41 -15z"/>
<path d="M1563 2318 c0 -13 -4 -60 -8 -104 l-7 -81 79 -79 c43 -44 105 -103
138 -133 33 -29 51 -50 40 -46 -103 36 -311 95 -338 95 -18 0 -177 -108 -177
-119 1 -3 37 -32 81 -64 l80 -57 83 20 c45 11 128 35 185 54 l103 35 -136
-131 -137 -131 7 -81 c4 -44 7 -93 8 -108 0 -16 2 -28 3 -28 4 0 156 69 173
78 14 8 44 82 54 134 2 13 14 64 26 113 12 50 22 98 23 108 3 33 14 17 21 -30
4 -27 9 -55 11 -63 3 -8 13 -51 24 -95 37 -156 34 -152 138 -200 51 -24 95
-40 97 -37 2 4 7 45 11 92 4 47 10 89 13 94 3 5 -59 71 -137 147 -140 135
-142 137 -94 119 105 -39 315 -94 328 -84 7 5 47 33 89 63 l76 53 -83 59 c-45
33 -89 59 -97 59 -20 0 -177 -43 -273 -74 -43 -14 -80 -26 -83 -26 -3 0 9 12
28 28 18 15 79 72 137 127 l103 100 -6 85 c-7 97 -10 117 -17 125 -5 4 -176
-69 -187 -80 -7 -7 -82 -321 -82 -345 -1 -36 -16 -7 -24 45 -4 22 -11 56 -16
75 -5 19 -11 46 -14 60 -6 31 -44 162 -48 165 -7 6 -182 85 -187 85 -4 0 -7
-10 -8 -22z"/>
<path d="M2920 1718 c-15 -99 -13 -95 -62 -100 -61 -6 -283 -2 -343 6 -156 22
-426 89 -460 115 -17 13 -45 21 -45 12 0 -4 10 -12 23 -18 73 -34 290 -263
395 -419 44 -64 126 -215 136 -249 4 -16 -7 -30 -54 -68 -34 -26 -58 -52 -55
-58 4 -5 11 -7 16 -3 13 8 256 17 439 17 136 0 252 -5 448 -18 70 -5 82 -4 75
8 -4 7 -56 85 -114 173 -125 188 -193 304 -301 514 -44 85 -81 156 -83 158 -2
2 -8 -30 -15 -70z m-557 -155 c12 -11 107 -42 210 -69 109 -27 130 -31 237
-40 41 -3 80 -7 86 -9 6 -2 14 -23 17 -47 9 -65 16 -95 36 -148 l18 -48 -49
-6 c-27 -4 -81 -18 -120 -32 -39 -14 -74 -22 -78 -17 -4 4 -23 31 -41 59 -69
104 -226 273 -312 335 -22 16 -33 29 -25 29 8 0 18 -3 21 -7z"/>
<path d="M690 1647 c-36 -72 -96 -185 -133 -251 -72 -125 -266 -424 -295 -452
-15 -15 -9 -16 78 -10 217 16 274 19 455 19 191 0 421 -10 436 -18 4 -3 10 -1
13 3 5 8 -48 58 -102 98 -14 10 -11 21 21 88 71 150 193 320 323 452 62 61 90
87 184 164 l25 21 -40 -17 c-104 -42 -293 -95 -392 -109 -23 -3 -57 -8 -75
-11 -55 -9 -349 -11 -354 -3 -2 5 -11 6 -18 3 -18 -7 -23 2 -30 61 -9 65 -17
95 -25 94 -3 0 -35 -59 -71 -132z m660 -94 c-46 -33 -64 -48 -151 -135 -74
-74 -177 -201 -214 -263 -9 -15 -16 -15 -85 9 -42 14 -95 28 -118 32 -23 4
-42 11 -42 16 0 5 9 36 21 70 11 34 23 82 26 107 3 26 8 49 12 52 3 4 40 9 81
13 141 10 291 43 410 89 78 31 93 33 60 10z"/>
<path d="M1849 1658 c-2 -9 -8 -39 -14 -78 -33 -218 -136 -487 -258 -672 l-57
-86 -52 20 c-72 28 -110 38 -106 30 2 -4 37 -59 79 -122 123 -187 202 -327
306 -539 54 -110 100 -200 103 -200 3 0 51 93 107 207 103 209 198 377 316
554 35 54 62 100 59 102 -4 5 -94 -27 -124 -44 -21 -12 -35 1 -92 89 -109 169
-217 438 -241 602 -4 24 -8 46 -10 50 -2 3 -5 24 -6 47 -3 35 -6 51 -10 40z
m25 -490 c20 -107 65 -245 116 -355 31 -67 36 -84 25 -91 -20 -11 -117 -103
-142 -136 l-23 -28 -27 33 c-27 32 -82 85 -130 126 l-21 18 32 65 c29 60 92
225 101 268 2 9 11 51 20 92 9 41 17 89 17 105 0 46 13 7 32 -97z"/>
</g>
</svg>
